<svg width="78" height="67" viewBox="0 0 78 67" fill="none" xmlns="http://www.w3.org/2000/svg">
<path d="M12.25 45.5L0 33.25L3.675 29.575L9.8 35.7C9.45 34.125 9.1875 32.55 9.0125 30.975C8.8375 29.4 8.75 27.825 8.75 26.25C8.75 21.4667 9.5375 16.8292 11.1125 12.3375C12.6875 7.84583 14.9625 3.73333 17.9375 0L21.7 3.7625C19.1917 7.02917 17.2812 10.5729 15.9687 14.3938C14.6562 18.2146 14 22.1667 14 26.25C14 27.7667 14.0875 29.2688 14.2625 30.7563C14.4375 32.2438 14.7292 33.7167 15.1375 35.175L20.825 29.575L24.5 33.25L12.25 45.5ZM54.075 65.8875C52.7333 66.3542 51.3771 66.5729 50.0062 66.5438C48.6354 66.5146 47.3083 66.1792 46.025 65.5375L23.1 54.8625L24.675 51.3625C25.2583 50.1958 26.075 49.2479 27.125 48.5188C28.175 47.7896 29.3417 47.3667 30.625 47.25L36.575 46.8125L26.775 19.95C26.425 19.0167 26.4542 18.1271 26.8625 17.2813C27.2708 16.4354 27.9417 15.8375 28.875 15.4875C29.8083 15.1375 30.6979 15.1667 31.5437 15.575C32.3896 15.9833 32.9875 16.6542 33.3375 17.5875L46.2875 53.2L37.5375 53.8125L49 59.15C49.4083 59.325 49.8458 59.4271 50.3125 59.4563C50.7792 59.4854 51.2167 59.4417 51.625 59.325L65.3625 54.3375C67.1708 53.6958 68.4833 52.4854 69.3 50.7063C70.1167 48.9271 70.2042 47.1333 69.5625 45.325L64.75 32.2C64.4 31.2667 64.4292 30.3771 64.8375 29.5313C65.2458 28.6854 65.9167 28.0875 66.85 27.7375C67.7833 27.3875 68.6729 27.4167 69.5188 27.825C70.3646 28.2333 70.9625 28.9042 71.3125 29.8375L76.125 42.9625C77.4667 46.6375 77.3354 50.2104 75.7312 53.6813C74.1271 57.1521 71.4875 59.5583 67.8125 60.9L54.075 65.8875ZM46.2 42.7L41.475 29.4875C41.125 28.5542 41.1542 27.6646 41.5625 26.8188C41.9708 25.9729 42.6417 25.375 43.575 25.025C44.5083 24.675 45.3979 24.7042 46.2437 25.1125C47.0896 25.5208 47.6875 26.1917 48.0375 27.125L52.85 40.25L46.2 42.7ZM56.0875 39.1125L52.5 29.225C52.15 28.2917 52.1792 27.4021 52.5875 26.5563C52.9958 25.7104 53.6667 25.1125 54.6 24.7625C55.5333 24.4125 56.4229 24.4417 57.2687 24.85C58.1146 25.2583 58.7125 25.9292 59.0625 26.8625L62.65 36.6625L56.0875 39.1125Z" fill="white"/>
</svg>
