<svg width="40" height="40" viewBox="0 0 40 40" fill="none" xmlns="http://www.w3.org/2000/svg">
<rect width="40" height="40" rx="20" fill="#F7F8DB"/>
<path d="M25.2148 12.9236C25.4483 13.0203 25.6006 13.2482 25.6006 13.501V17.0365C25.6006 17.3817 25.3208 17.6615 24.9756 17.6615H21.44C21.1873 17.6615 20.9594 17.5093 20.8626 17.2757C20.7659 17.0422 20.8194 16.7733 20.9981 16.5946L22.3339 15.2588C20.1395 14.3409 17.5134 14.7757 15.7279 16.5612C13.3685 18.9206 13.3685 22.746 15.7279 25.1054C18.0873 27.4649 21.9127 27.4649 24.2721 25.1054C25.6439 23.7336 26.2185 21.8668 25.9946 20.0781C25.9517 19.7356 26.1946 19.4232 26.5371 19.3803C26.8796 19.3374 27.192 19.5803 27.2349 19.9228C27.5047 22.0778 26.8122 24.3331 25.156 25.9893C22.3084 28.8369 17.6916 28.8369 14.844 25.9893C11.9964 23.1417 11.9964 18.5249 14.844 15.6773C17.126 13.3954 20.5429 12.9427 23.2758 14.3169L24.5336 13.0591C24.7124 12.8803 24.9812 12.8268 25.2148 12.9236Z" fill="black"/>
</svg>
